# MagicaVoxel @ Ephtracy

# material
mtllib character.mtl
usemtl palette

# normals
vn -1 0 0
vn 1 0 0
vn 0 0 1
vn 0 0 -1
vn 0 -1 0
vn 0 1 0

# texcoords
vt 0.00585938 0.5
vt 0.232422 0.5
vt 0.388672 0.5
vt 0.396484 0.5
vt 0.845703 0.5
vt 0.919922 0.5
vt 0.958984 0.5
vt 0.982422 0.5
vt 0.994141 0.5

# verts
v -4.5 7 0.5
v -4.5 7 -0.5
v -4.5 8 0.5
v -4.5 8 -0.5
v -4.5 12 0.5
v -4.5 12 -0.5
v -4.5 14 1.5
v -4.5 14 -0.5
v -4.5 14 -1.5
v -4.5 15 0.5
v -4.5 15 -0.5
v -4.5 17 1.5
v -4.5 17 0.5
v -4.5 19 1.5
v -4.5 19 0.5
v -4.5 19 -0.5
v -4.5 19 -1.5
v -4.5 20 0.5
v -4.5 20 -0.5
v -3.5 5 2.5
v -3.5 5 -2.5
v -3.5 6 2.5
v -3.5 6 -2.5
v -3.5 7 0.5
v -3.5 7 -0.5
v -3.5 8 0.5
v -3.5 8 -0.5
v -3.5 12 2.5
v -3.5 12 0.5
v -3.5 12 -0.5
v -3.5 12 -2.5
v -3.5 13 1.5
v -3.5 13 -1.5
v -3.5 14 1.5
v -3.5 14 -0.5
v -3.5 14 -1.5
v -3.5 15 -1.5
v -3.5 15 -2.5
v -3.5 18 2.5
v -3.5 18 1.5
v -3.5 19 2.5
v -3.5 19 1.5
v -3.5 19 0.5
v -3.5 19 -0.5
v -3.5 19 -1.5
v -3.5 19 -2.5
v -3.5 20 1.5
v -3.5 20 0.5
v -3.5 20 -0.5
v -3.5 20 -1.5
v -2.5 0 1.5
v -2.5 0 -0.5
v -2.5 1 1.5
v -2.5 1 0.5
v -2.5 2 0.5
v -2.5 2 -0.5
v -2.5 5 0.5
v -2.5 5 -0.5
v -2.5 19 -1.5
v -2.5 19 -2.5
v -2.5 20 1.5
v -2.5 20 0.5
v -2.5 20 -0.5
v -2.5 20 -1.5
v -2.5 20 -2.5
v -2.5 21 1.5
v -2.5 21 0.5
v -2.5 21 -0.5
v -2.5 21 -1.5
v -1.5 12 1.5
v -1.5 12 -1.5
v -1.5 13 2.5
v -1.5 13 1.5
v -1.5 13 -1.5
v -1.5 14 2.5
v -1.5 14 1.5
v 1.5 0 1.5
v 1.5 0 -0.5
v 1.5 1 1.5
v 1.5 1 0.5
v 1.5 2 0.5
v 1.5 2 -0.5
v 1.5 5 0.5
v 1.5 5 -0.5
v -1.5 0 1.5
v -1.5 0 -0.5
v -1.5 1 1.5
v -1.5 1 0.5
v -1.5 2 0.5
v -1.5 2 -0.5
v -1.5 5 0.5
v -1.5 5 -0.5
v 1.5 12 1.5
v 1.5 12 -1.5
v 1.5 13 2.5
v 1.5 13 1.5
v 1.5 13 -1.5
v 1.5 14 2.5
v 1.5 14 1.5
v 2.5 0 1.5
v 2.5 0 -0.5
v 2.5 1 1.5
v 2.5 1 0.5
v 2.5 2 0.5
v 2.5 2 -0.5
v 2.5 5 0.5
v 2.5 5 -0.5
v 2.5 19 -1.5
v 2.5 19 -2.5
v 2.5 20 1.5
v 2.5 20 0.5
v 2.5 20 -0.5
v 2.5 20 -1.5
v 2.5 20 -2.5
v 2.5 21 1.5
v 2.5 21 0.5
v 2.5 21 -0.5
v 2.5 21 -1.5
v 3.5 5 2.5
v 3.5 5 -2.5
v 3.5 6 2.5
v 3.5 6 -2.5
v 3.5 7 0.5
v 3.5 7 -0.5
v 3.5 8 0.5
v 3.5 8 -0.5
v 3.5 12 2.5
v 3.5 12 0.5
v 3.5 12 -0.5
v 3.5 12 -2.5
v 3.5 13 1.5
v 3.5 13 -1.5
v 3.5 14 1.5
v 3.5 14 -0.5
v 3.5 14 -1.5
v 3.5 15 -1.5
v 3.5 15 -2.5
v 3.5 18 2.5
v 3.5 18 1.5
v 3.5 19 2.5
v 3.5 19 1.5
v 3.5 19 0.5
v 3.5 19 -0.5
v 3.5 19 -1.5
v 3.5 19 -2.5
v 3.5 20 1.5
v 3.5 20 0.5
v 3.5 20 -0.5
v 3.5 20 -1.5
v 4.5 7 0.5
v 4.5 7 -0.5
v 4.5 8 0.5
v 4.5 8 -0.5
v 4.5 12 0.5
v 4.5 12 -0.5
v 4.5 14 1.5
v 4.5 14 -0.5
v 4.5 14 -1.5
v 4.5 15 0.5
v 4.5 15 -0.5
v 4.5 17 1.5
v 4.5 17 0.5
v 4.5 19 1.5
v 4.5 19 0.5
v 4.5 19 -0.5
v 4.5 19 -1.5
v 4.5 20 0.5
v 4.5 20 -0.5
v -3.5 5 2.5
v -3.5 6 2.5
v -3.5 12 2.5
v -3.5 18 2.5
v -3.5 19 2.5
v -1.5 6 2.5
v -1.5 12 2.5
v -1.5 13 2.5
v -1.5 14 2.5
v 1.5 6 2.5
v 1.5 12 2.5
v 1.5 13 2.5
v 1.5 14 2.5
v 3.5 5 2.5
v 3.5 6 2.5
v 3.5 12 2.5
v 3.5 18 2.5
v 3.5 19 2.5
v -4.5 14 1.5
v -4.5 17 1.5
v -4.5 19 1.5
v -3.5 13 1.5
v -3.5 14 1.5
v -3.5 17 1.5
v -3.5 18 1.5
v -3.5 19 1.5
v -3.5 20 1.5
v -2.5 0 1.5
v -2.5 1 1.5
v -2.5 15 1.5
v -2.5 16 1.5
v -2.5 17 1.5
v -2.5 20 1.5
v -2.5 21 1.5
v -1.5 0 1.5
v -1.5 1 1.5
v -1.5 12 1.5
v -1.5 13 1.5
v -1.5 14 1.5
v -0.5 15 1.5
v -0.5 16 1.5
v -0.5 17 1.5
v 0.5 15 1.5
v 0.5 16 1.5
v 0.5 17 1.5
v 1.5 0 1.5
v 1.5 1 1.5
v 1.5 12 1.5
v 1.5 13 1.5
v 1.5 14 1.5
v 2.5 0 1.5
v 2.5 1 1.5
v 2.5 15 1.5
v 2.5 16 1.5
v 2.5 17 1.5
v 2.5 20 1.5
v 2.5 21 1.5
v 3.5 13 1.5
v 3.5 14 1.5
v 3.5 17 1.5
v 3.5 18 1.5
v 3.5 19 1.5
v 3.5 20 1.5
v 4.5 14 1.5
v 4.5 17 1.5
v 4.5 19 1.5
v -4.5 7 0.5
v -4.5 8 0.5
v -4.5 12 0.5
v -4.5 19 0.5
v -4.5 20 0.5
v -3.5 7 0.5
v -3.5 8 0.5
v -3.5 12 0.5
v -3.5 19 0.5
v -3.5 20 0.5
v -2.5 1 0.5
v -2.5 2 0.5
v -2.5 5 0.5
v -1.5 1 0.5
v -1.5 2 0.5
v -1.5 5 0.5
v 1.5 1 0.5
v 1.5 2 0.5
v 1.5 5 0.5
v 2.5 1 0.5
v 2.5 2 0.5
v 2.5 5 0.5
v 3.5 7 0.5
v 3.5 8 0.5
v 3.5 12 0.5
v 3.5 19 0.5
v 3.5 20 0.5
v 4.5 7 0.5
v 4.5 8 0.5
v 4.5 12 0.5
v 4.5 19 0.5
v 4.5 20 0.5
v -2.5 20 -0.5
v -2.5 21 -0.5
v 2.5 20 -0.5
v 2.5 21 -0.5
v -2.5 20 0.5
v -2.5 21 0.5
v 2.5 20 0.5
v 2.5 21 0.5
v -4.5 7 -0.5
v -4.5 8 -0.5
v -4.5 12 -0.5
v -4.5 19 -0.5
v -4.5 20 -0.5
v -3.5 7 -0.5
v -3.5 8 -0.5
v -3.5 12 -0.5
v -3.5 19 -0.5
v -3.5 20 -0.5
v -2.5 0 -0.5
v -2.5 2 -0.5
v -2.5 5 -0.5
v -1.5 0 -0.5
v -1.5 2 -0.5
v -1.5 5 -0.5
v 1.5 0 -0.5
v 1.5 2 -0.5
v 1.5 5 -0.5
v 2.5 0 -0.5
v 2.5 2 -0.5
v 2.5 5 -0.5
v 3.5 7 -0.5
v 3.5 8 -0.5
v 3.5 12 -0.5
v 3.5 19 -0.5
v 3.5 20 -0.5
v 4.5 7 -0.5
v 4.5 8 -0.5
v 4.5 12 -0.5
v 4.5 19 -0.5
v 4.5 20 -0.5
v -4.5 14 -1.5
v -4.5 19 -1.5
v -3.5 13 -1.5
v -3.5 14 -1.5
v -3.5 15 -1.5
v -3.5 19 -1.5
v -3.5 20 -1.5
v -2.5 19 -1.5
v -2.5 20 -1.5
v -2.5 21 -1.5
v -1.5 12 -1.5
v -1.5 13 -1.5
v 1.5 12 -1.5
v 1.5 13 -1.5
v 2.5 19 -1.5
v 2.5 20 -1.5
v 2.5 21 -1.5
v 3.5 13 -1.5
v 3.5 14 -1.5
v 3.5 15 -1.5
v 3.5 19 -1.5
v 3.5 20 -1.5
v 4.5 14 -1.5
v 4.5 19 -1.5
v -3.5 5 -2.5
v -3.5 6 -2.5
v -3.5 12 -2.5
v -3.5 15 -2.5
v -3.5 19 -2.5
v -2.5 19 -2.5
v -2.5 20 -2.5
v 2.5 19 -2.5
v 2.5 20 -2.5
v 3.5 5 -2.5
v 3.5 6 -2.5
v 3.5 12 -2.5
v 3.5 15 -2.5
v 3.5 19 -2.5
v -2.5 0 1.5
v -1.5 0 1.5
v 1.5 0 1.5
v 2.5 0 1.5
v -2.5 0 -0.5
v -1.5 0 -0.5
v 1.5 0 -0.5
v 2.5 0 -0.5
v -3.5 5 2.5
v 3.5 5 2.5
v -2.5 5 0.5
v -1.5 5 0.5
v 1.5 5 0.5
v 2.5 5 0.5
v -2.5 5 -0.5
v -1.5 5 -0.5
v 1.5 5 -0.5
v 2.5 5 -0.5
v -3.5 5 -2.5
v 3.5 5 -2.5
v -4.5 7 0.5
v -3.5 7 0.5
v 3.5 7 0.5
v 4.5 7 0.5
v -4.5 7 -0.5
v -3.5 7 -0.5
v 3.5 7 -0.5
v 4.5 7 -0.5
v -1.5 13 2.5
v 1.5 13 2.5
v -3.5 13 1.5
v -1.5 13 1.5
v 1.5 13 1.5
v 3.5 13 1.5
v -3.5 13 -1.5
v -1.5 13 -1.5
v 1.5 13 -1.5
v 3.5 13 -1.5
v -4.5 14 1.5
v -3.5 14 1.5
v 3.5 14 1.5
v 4.5 14 1.5
v -4.5 14 -0.5
v -3.5 14 -0.5
v 3.5 14 -0.5
v 4.5 14 -0.5
v -4.5 14 -1.5
v -3.5 14 -1.5
v 3.5 14 -1.5
v 4.5 14 -1.5
v -3.5 15 -1.5
v 3.5 15 -1.5
v -3.5 15 -2.5
v 3.5 15 -2.5
v -3.5 18 2.5
v 3.5 18 2.5
v -3.5 18 1.5
v 3.5 18 1.5
v -2.5 1 1.5
v -1.5 1 1.5
v 1.5 1 1.5
v 2.5 1 1.5
v -2.5 1 0.5
v -1.5 1 0.5
v 1.5 1 0.5
v 2.5 1 0.5
v -3.5 12 2.5
v -1.5 12 2.5
v 1.5 12 2.5
v 3.5 12 2.5
v -1.5 12 1.5
v 1.5 12 1.5
v -4.5 12 0.5
v -3.5 12 0.5
v 3.5 12 0.5
v 4.5 12 0.5
v -4.5 12 -0.5
v -3.5 12 -0.5
v 3.5 12 -0.5
v 4.5 12 -0.5
v -1.5 12 -1.5
v 1.5 12 -1.5
v -3.5 12 -2.5
v 3.5 12 -2.5
v -1.5 14 2.5
v 1.5 14 2.5
v -1.5 14 1.5
v 1.5 14 1.5
v -3.5 19 2.5
v 3.5 19 2.5
v -4.5 19 1.5
v -3.5 19 1.5
v 3.5 19 1.5
v 4.5 19 1.5
v -4.5 19 0.5
v -3.5 19 0.5
v 3.5 19 0.5
v 4.5 19 0.5
v -4.5 19 -0.5
v -3.5 19 -0.5
v 3.5 19 -0.5
v 4.5 19 -0.5
v -4.5 19 -1.5
v -3.5 19 -1.5
v -2.5 19 -1.5
v 2.5 19 -1.5
v 3.5 19 -1.5
v 4.5 19 -1.5
v -3.5 19 -2.5
v -2.5 19 -2.5
v 2.5 19 -2.5
v 3.5 19 -2.5
v -3.5 20 1.5
v -2.5 20 1.5
v 2.5 20 1.5
v 3.5 20 1.5
v -4.5 20 0.5
v -3.5 20 0.5
v -2.5 20 0.5
v 2.5 20 0.5
v 3.5 20 0.5
v 4.5 20 0.5
v -4.5 20 -0.5
v -3.5 20 -0.5
v -2.5 20 -0.5
v 2.5 20 -0.5
v 3.5 20 -0.5
v 4.5 20 -0.5
v -3.5 20 -1.5
v -2.5 20 -1.5
v 2.5 20 -1.5
v 3.5 20 -1.5
v -2.5 20 -2.5
v 2.5 20 -2.5
v -2.5 21 1.5
v 2.5 21 1.5
v -2.5 21 0.5
v 2.5 21 0.5
v -2.5 21 -0.5
v 2.5 21 -0.5
v -2.5 21 -1.5
v 2.5 21 -1.5

# faces
f 3/1/1 2/1/1 1/1/1
f 4/1/1 2/1/1 3/1/1
f 5/4/1 4/4/1 3/4/1
f 6/4/1 4/4/1 5/4/1
f 10/1/1 8/1/1 7/1/1
f 11/8/1 9/8/1 8/8/1
f 11/1/1 8/1/1 10/1/1
f 12/1/1 10/1/1 7/1/1
f 13/8/1 11/8/1 10/8/1
f 13/1/1 10/1/1 12/1/1
f 14/8/1 13/8/1 12/8/1
f 15/8/1 11/8/1 13/8/1
f 15/8/1 13/8/1 14/8/1
f 16/8/1 9/8/1 11/8/1
f 16/8/1 11/8/1 15/8/1
f 17/8/1 9/8/1 16/8/1
f 18/8/1 16/8/1 15/8/1
f 19/8/1 16/8/1 18/8/1
f 22/6/1 21/6/1 20/6/1
f 23/6/1 21/6/1 22/6/1
f 24/3/1 23/3/1 22/3/1
f 25/3/1 23/3/1 24/3/1
f 26/3/1 24/3/1 22/3/1
f 27/3/1 23/3/1 25/3/1
f 28/3/1 26/3/1 22/3/1
f 29/3/1 26/3/1 28/3/1
f 30/3/1 23/3/1 27/3/1
f 31/3/1 23/3/1 30/3/1
f 34/1/1 33/1/1 32/1/1
f 35/1/1 33/1/1 34/1/1
f 36/1/1 33/1/1 35/1/1
f 41/8/1 40/8/1 39/8/1
f 42/8/1 40/8/1 41/8/1
f 45/8/1 38/8/1 37/8/1
f 46/8/1 38/8/1 45/8/1
f 47/8/1 43/8/1 42/8/1
f 48/8/1 43/8/1 47/8/1
f 49/8/1 45/8/1 44/8/1
f 50/8/1 45/8/1 49/8/1
f 53/9/1 52/9/1 51/9/1
f 54/9/1 52/9/1 53/9/1
f 55/9/1 52/9/1 54/9/1
f 56/9/1 52/9/1 55/9/1
f 57/6/1 56/6/1 55/6/1
f 58/6/1 56/6/1 57/6/1
f 64/8/1 60/8/1 59/8/1
f 65/8/1 60/8/1 64/8/1
f 66/8/1 62/8/1 61/8/1
f 67/8/1 62/8/1 66/8/1
f 68/8/1 64/8/1 63/8/1
f 69/8/1 64/8/1 68/8/1
f 73/1/1 71/1/1 70/1/1
f 74/1/1 71/1/1 73/1/1
f 75/8/1 73/8/1 72/8/1
f 76/8/1 73/8/1 75/8/1
f 79/9/1 78/9/1 77/9/1
f 80/9/1 78/9/1 79/9/1
f 81/9/1 78/9/1 80/9/1
f 82/9/1 78/9/1 81/9/1
f 83/6/1 82/6/1 81/6/1
f 84/6/1 82/6/1 83/6/1
f 85/9/2 86/9/2 87/9/2
f 87/9/2 86/9/2 88/9/2
f 88/9/2 86/9/2 89/9/2
f 89/9/2 86/9/2 90/9/2
f 89/6/2 90/6/2 91/6/2
f 91/6/2 90/6/2 92/6/2
f 93/1/2 94/1/2 96/1/2
f 96/1/2 94/1/2 97/1/2
f 95/8/2 96/8/2 98/8/2
f 98/8/2 96/8/2 99/8/2
f 100/9/2 101/9/2 102/9/2
f 102/9/2 101/9/2 103/9/2
f 103/9/2 101/9/2 104/9/2
f 104/9/2 101/9/2 105/9/2
f 104/6/2 105/6/2 106/6/2
f 106/6/2 105/6/2 107/6/2
f 108/8/2 109/8/2 113/8/2
f 113/8/2 109/8/2 114/8/2
f 110/8/2 111/8/2 115/8/2
f 115/8/2 111/8/2 116/8/2
f 112/8/2 113/8/2 117/8/2
f 117/8/2 113/8/2 118/8/2
f 119/6/2 120/6/2 121/6/2
f 121/6/2 120/6/2 122/6/2
f 121/3/2 122/3/2 123/3/2
f 123/3/2 122/3/2 124/3/2
f 121/3/2 123/3/2 125/3/2
f 124/3/2 122/3/2 126/3/2
f 121/3/2 125/3/2 127/3/2
f 127/3/2 125/3/2 128/3/2
f 126/3/2 122/3/2 129/3/2
f 129/3/2 122/3/2 130/3/2
f 131/1/2 132/1/2 133/1/2
f 133/1/2 132/1/2 134/1/2
f 134/1/2 132/1/2 135/1/2
f 138/8/2 139/8/2 140/8/2
f 140/8/2 139/8/2 141/8/2
f 136/8/2 137/8/2 144/8/2
f 144/8/2 137/8/2 145/8/2
f 141/8/2 142/8/2 146/8/2
f 146/8/2 142/8/2 147/8/2
f 143/8/2 144/8/2 148/8/2
f 148/8/2 144/8/2 149/8/2
f 150/1/2 151/1/2 152/1/2
f 152/1/2 151/1/2 153/1/2
f 152/4/2 153/4/2 154/4/2
f 154/4/2 153/4/2 155/4/2
f 156/1/2 157/1/2 159/1/2
f 157/8/2 158/8/2 160/8/2
f 159/1/2 157/1/2 160/1/2
f 156/1/2 159/1/2 161/1/2
f 159/8/2 160/8/2 162/8/2
f 161/1/2 159/1/2 162/1/2
f 161/8/2 162/8/2 163/8/2
f 162/8/2 160/8/2 164/8/2
f 163/8/2 162/8/2 164/8/2
f 160/8/2 158/8/2 165/8/2
f 164/8/2 160/8/2 165/8/2
f 165/8/2 158/8/2 166/8/2
f 164/8/2 165/8/2 167/8/2
f 167/8/2 165/8/2 168/8/2
f 174/6/3 170/6/3 169/6/3
f 174/3/3 171/3/3 170/3/3
f 175/3/3 171/3/3 174/3/3
f 178/6/3 174/6/3 169/6/3
f 178/4/3 175/4/3 174/4/3
f 179/4/3 175/4/3 178/4/3
f 180/8/3 177/8/3 176/8/3
f 181/8/3 177/8/3 180/8/3
f 182/6/3 178/6/3 169/6/3
f 183/3/3 179/3/3 178/3/3
f 183/6/3 178/6/3 182/6/3
f 184/3/3 179/3/3 183/3/3
f 185/8/3 173/8/3 172/8/3
f 186/8/3 173/8/3 185/8/3
f 191/1/3 188/1/3 187/1/3
f 192/8/3 189/8/3 188/8/3
f 192/1/3 188/1/3 191/1/3
f 193/8/3 189/8/3 192/8/3
f 194/8/3 189/8/3 193/8/3
f 198/1/3 191/1/3 190/1/3
f 198/1/3 192/1/3 191/1/3
f 198/1/3 193/1/3 192/1/3
f 199/1/3 193/1/3 198/1/3
f 200/1/3 193/1/3 199/1/3
f 201/8/3 195/8/3 194/8/3
f 203/9/3 197/9/3 196/9/3
f 204/9/3 197/9/3 203/9/3
f 206/1/3 198/1/3 190/1/3
f 207/1/3 198/1/3 206/1/3
f 208/1/3 198/1/3 207/1/3
f 208/9/3 199/9/3 198/9/3
f 209/7/3 200/7/3 199/7/3
f 209/9/3 199/9/3 208/9/3
f 210/1/3 193/1/3 200/1/3
f 210/7/3 200/7/3 209/7/3
f 211/1/3 209/1/3 208/1/3
f 211/1/3 208/1/3 207/1/3
f 211/1/3 210/1/3 209/1/3
f 212/1/3 210/1/3 211/1/3
f 213/1/3 193/1/3 210/1/3
f 213/1/3 210/1/3 212/1/3
f 216/1/3 206/1/3 205/1/3
f 217/1/3 206/1/3 216/1/3
f 218/1/3 211/1/3 207/1/3
f 219/9/3 215/9/3 214/9/3
f 220/9/3 215/9/3 219/9/3
f 221/9/3 212/9/3 211/9/3
f 221/1/3 218/1/3 217/1/3
f 221/1/3 211/1/3 218/1/3
f 222/7/3 213/7/3 212/7/3
f 222/9/3 212/9/3 221/9/3
f 223/1/3 193/1/3 213/1/3
f 223/7/3 213/7/3 222/7/3
f 224/8/3 202/8/3 201/8/3
f 224/8/3 201/8/3 194/8/3
f 225/8/3 202/8/3 224/8/3
f 226/1/3 223/1/3 222/1/3
f 226/1/3 221/1/3 217/1/3
f 226/1/3 222/1/3 221/1/3
f 227/1/3 223/1/3 226/1/3
f 228/1/3 193/1/3 223/1/3
f 228/1/3 223/1/3 227/1/3
f 229/1/3 193/1/3 228/1/3
f 230/8/3 224/8/3 194/8/3
f 231/8/3 224/8/3 230/8/3
f 232/1/3 228/1/3 227/1/3
f 233/8/3 229/8/3 228/8/3
f 233/1/3 228/1/3 232/1/3
f 233/8/3 230/8/3 229/8/3
f 234/8/3 230/8/3 233/8/3
f 240/1/3 236/1/3 235/1/3
f 241/4/3 237/4/3 236/4/3
f 241/1/3 236/1/3 240/1/3
f 242/4/3 237/4/3 241/4/3
f 243/8/3 239/8/3 238/8/3
f 244/8/3 239/8/3 243/8/3
f 248/9/3 246/9/3 245/9/3
f 249/6/3 247/6/3 246/6/3
f 249/9/3 246/9/3 248/9/3
f 250/6/3 247/6/3 249/6/3
f 254/9/3 252/9/3 251/9/3
f 255/6/3 253/6/3 252/6/3
f 255/9/3 252/9/3 254/9/3
f 256/6/3 253/6/3 255/6/3
f 262/1/3 258/1/3 257/1/3
f 263/4/3 259/4/3 258/4/3
f 263/1/3 258/1/3 262/1/3
f 264/4/3 259/4/3 263/4/3
f 265/8/3 261/8/3 260/8/3
f 266/8/3 261/8/3 265/8/3
f 269/8/3 268/8/3 267/8/3
f 270/8/3 268/8/3 269/8/3
f 271/8/4 272/8/4 273/8/4
f 273/8/4 272/8/4 274/8/4
f 275/1/4 276/1/4 280/1/4
f 276/4/4 277/4/4 281/4/4
f 280/1/4 276/1/4 281/1/4
f 281/4/4 277/4/4 282/4/4
f 278/8/4 279/8/4 283/8/4
f 283/8/4 279/8/4 284/8/4
f 285/9/4 286/9/4 288/9/4
f 286/6/4 287/6/4 289/6/4
f 288/9/4 286/9/4 289/9/4
f 289/6/4 287/6/4 290/6/4
f 291/9/4 292/9/4 294/9/4
f 292/6/4 293/6/4 295/6/4
f 294/9/4 292/9/4 295/9/4
f 295/6/4 293/6/4 296/6/4
f 297/1/4 298/1/4 302/1/4
f 298/4/4 299/4/4 303/4/4
f 302/1/4 298/1/4 303/1/4
f 303/4/4 299/4/4 304/4/4
f 300/8/4 301/8/4 305/8/4
f 305/8/4 301/8/4 306/8/4
f 307/8/4 308/8/4 310/8/4
f 310/8/4 308/8/4 311/8/4
f 311/8/4 308/8/4 312/8/4
f 312/8/4 313/8/4 314/8/4
f 314/8/4 313/8/4 315/8/4
f 309/1/4 310/1/4 318/1/4
f 317/1/4 318/1/4 319/1/4
f 318/1/4 310/1/4 320/1/4
f 319/1/4 318/1/4 320/1/4
f 315/8/4 316/8/4 322/8/4
f 322/8/4 316/8/4 323/8/4
f 320/1/4 310/1/4 324/1/4
f 310/8/4 311/8/4 325/8/4
f 324/1/4 310/1/4 325/1/4
f 325/8/4 311/8/4 326/8/4
f 321/8/4 322/8/4 327/8/4
f 327/8/4 322/8/4 328/8/4
f 325/8/4 326/8/4 329/8/4
f 326/8/4 327/8/4 329/8/4
f 329/8/4 327/8/4 330/8/4
f 334/8/4 335/8/4 336/8/4
f 334/8/4 336/8/4 338/8/4
f 336/8/4 337/8/4 338/8/4
f 338/8/4 337/8/4 339/8/4
f 331/6/4 332/6/4 340/6/4
f 332/3/4 333/3/4 341/3/4
f 340/6/4 332/6/4 341/6/4
f 341/3/4 333/3/4 342/3/4
f 334/8/4 338/8/4 343/8/4
f 343/8/4 338/8/4 344/8/4
f 349/9/5 346/9/5 345/9/5
f 350/9/5 346/9/5 349/9/5
f 351/9/5 348/9/5 347/9/5
f 352/9/5 348/9/5 351/9/5
f 355/6/5 354/6/5 353/6/5
f 356/6/5 354/6/5 355/6/5
f 357/6/5 354/6/5 356/6/5
f 358/6/5 354/6/5 357/6/5
f 359/6/5 355/6/5 353/6/5
f 360/6/5 357/6/5 356/6/5
f 361/6/5 357/6/5 360/6/5
f 362/6/5 354/6/5 358/6/5
f 363/6/5 361/6/5 360/6/5
f 363/6/5 362/6/5 361/6/5
f 363/6/5 359/6/5 353/6/5
f 363/6/5 360/6/5 359/6/5
f 364/6/5 354/6/5 362/6/5
f 364/6/5 362/6/5 363/6/5
f 369/1/5 366/1/5 365/1/5
f 370/1/5 366/1/5 369/1/5
f 371/1/5 368/1/5 367/1/5
f 372/1/5 368/1/5 371/1/5
f 376/8/5 374/8/5 373/8/5
f 377/8/5 374/8/5 376/8/5
f 379/1/5 376/1/5 375/1/5
f 380/1/5 376/1/5 379/1/5
f 381/1/5 378/1/5 377/1/5
f 382/1/5 378/1/5 381/1/5
f 387/1/5 384/1/5 383/1/5
f 388/1/5 384/1/5 387/1/5
f 389/1/5 386/1/5 385/1/5
f 390/1/5 386/1/5 389/1/5
f 391/8/5 388/8/5 387/8/5
f 392/8/5 388/8/5 391/8/5
f 393/8/5 390/8/5 389/8/5
f 394/8/5 390/8/5 393/8/5
f 397/8/5 396/8/5 395/8/5
f 398/8/5 396/8/5 397/8/5
f 401/8/5 400/8/5 399/8/5
f 402/8/5 400/8/5 401/8/5
f 403/9/6 404/9/6 407/9/6
f 407/9/6 404/9/6 408/9/6
f 405/9/6 406/9/6 409/9/6
f 409/9/6 406/9/6 410/9/6
f 411/3/6 412/3/6 415/3/6
f 412/4/6 413/4/6 415/4/6
f 413/3/6 414/3/6 416/3/6
f 415/4/6 413/4/6 416/4/6
f 411/3/6 415/3/6 418/3/6
f 416/3/6 414/3/6 419/3/6
f 417/4/6 418/4/6 421/4/6
f 418/3/6 415/3/6 422/3/6
f 421/4/6 418/4/6 422/4/6
f 419/4/6 420/4/6 423/4/6
f 416/3/6 419/3/6 423/3/6
f 423/4/6 420/4/6 424/4/6
f 422/3/6 415/3/6 425/3/6
f 416/3/6 423/3/6 426/3/6
f 422/3/6 425/3/6 427/3/6
f 425/3/6 426/3/6 427/3/6
f 426/3/6 423/3/6 428/3/6
f 427/3/6 426/3/6 428/3/6
f 429/8/6 430/8/6 431/8/6
f 431/8/6 430/8/6 432/8/6
f 433/8/6 434/8/6 436/8/6
f 436/8/6 434/8/6 437/8/6
f 435/8/6 436/8/6 439/8/6
f 439/8/6 436/8/6 440/8/6
f 437/8/6 438/8/6 441/8/6
f 441/8/6 438/8/6 442/8/6
f 443/8/6 444/8/6 447/8/6
f 447/8/6 444/8/6 448/8/6
f 445/8/6 446/8/6 451/8/6
f 451/8/6 446/8/6 452/8/6
f 448/8/6 449/8/6 453/8/6
f 453/8/6 449/8/6 454/8/6
f 450/8/6 451/8/6 455/8/6
f 455/8/6 451/8/6 456/8/6
f 457/8/6 458/8/6 462/8/6
f 462/8/6 458/8/6 463/8/6
f 459/8/6 460/8/6 464/8/6
f 464/8/6 460/8/6 465/8/6
f 462/8/6 463/8/6 467/8/6
f 465/8/6 466/8/6 467/8/6
f 464/8/6 465/8/6 467/8/6
f 463/8/6 464/8/6 467/8/6
f 461/8/6 462/8/6 467/8/6
f 467/8/6 466/8/6 468/8/6
f 468/8/6 466/8/6 469/8/6
f 469/8/6 466/8/6 470/8/6
f 470/8/6 466/8/6 471/8/6
f 471/8/6 466/8/6 472/8/6
f 468/8/6 469/8/6 473/8/6
f 473/8/6 469/8/6 474/8/6
f 470/8/6 471/8/6 475/8/6
f 475/8/6 471/8/6 476/8/6
f 474/8/6 475/8/6 477/8/6
f 477/8/6 475/8/6 478/8/6
f 479/8/6 480/8/6 481/8/6
f 481/8/6 480/8/6 482/8/6
f 483/8/6 484/8/6 485/8/6
f 485/8/6 484/8/6 486/8/6
